Coordinates
version=1
nRows=8
nColumns=34
inDegrees=yes

Units are S.I. units (second, meters, Newtons, ...)
If the header above contains a line with 'inDegrees', this indicates whether rotational values are in degrees (yes) or radians (no).

endheader
time	pelvis_tilt	pelvis_list	pelvis_rotation	pelvis_tx	pelvis_ty	pelvis_tz	hip_flexion_r	hip_adduction_r	hip_rotation_r	knee_angle_r	ankle_angle_r	subtalar_angle_r	mtp_angle_r	hip_flexion_l	hip_adduction_l	hip_rotation_l	knee_angle_l	socket_flexion	socket_adduction	socket_rotation	socket_tx	socket_ty	socket_tz	pros_ankle_rx	pros_ankle_ry	pros_ankle_rz	pros_ankle_tx	pros_ankle_ty	pros_ankle_tz	foot_flex	lumbar_extension	lumbar_bending	lumbar_rotation
      0.00000000	     -2.12904102	     -9.15521202	     -4.91218567	     -0.78445817	      1.04321899	      0.36683420	    -17.29489848	      9.74255983	     -4.04505479	     -2.70690676	      3.72508168	     22.77854589	     27.73102761	     20.68590164	     -8.92362376	      1.08761783	     -2.00733578	      1.44157803	     -0.40916720	     -1.08685442	      0.00000000	     -0.00001295	      0.00000000	      0.00000000	      0.00000000	      0.00000000	      0.00000000	      0.00000000	      0.00000000	      0.09226614	    -16.12900242	      4.14266087	     13.28648459
      0.00418120	     -2.15963007	     -9.17945129	     -4.97806850	     -0.77960067	      1.04228586	      0.36682894	    -17.48521114	      9.69951943	     -3.99509556	     -2.82031110	      3.72768212	     22.80800989	     27.74460384	     20.73985679	     -8.92264007	      1.11073306	     -1.91142974	      1.55711665	     -0.39832614	     -1.13159525	      0.00000000	     -0.00031114	      0.00000000	      0.00000000	      0.00000000	      0.00000000	      0.00000000	      0.00000000	      0.00000000	     -0.25197659	    -16.10482434	      4.08811688	     13.28791964
      0.00836240	     -2.18891702	     -9.19808284	     -5.06607425	     -0.77455848	      1.04132028	      0.36683786	    -17.68307463	      9.64090336	     -3.92163757	     -2.94332245	      3.74521223	     22.86184113	     27.77049118	     20.78886666	     -8.92226666	      1.15510005	     -1.78670134	      1.66007260	     -0.39474012	     -1.20592489	      0.00000000	     -0.00068085	      0.00000000	      0.00000000	      0.00000000	      0.00000000	      0.00000000	      0.00000000	      0.00000000	     -0.65063158	    -16.08043982	      4.02258069	     13.30015561
      0.01254400	     -2.22161157	     -9.21443531	     -5.16187328	     -0.76933456	      1.04032699	      0.36683743	    -17.88052948	      9.57181520	     -3.83966927	     -3.07966366	      3.77482646	     22.93315584	     27.80908411	     20.84143817	     -8.92272550	      1.21609627	     -1.63625417	      1.76583536	     -0.39180917	     -1.29427266	      0.00000000	     -0.00109500	      0.00000000	      0.00000000	      0.00000000	      0.00000000	      0.00000000	      0.00000000	      0.00000000	     -1.05201786	    -16.06035041	      3.94323337	     13.32310967
      0.01672500	     -2.25147469	     -9.22674193	     -5.26743648	     -0.76401106	      1.03932552	      0.36687043	    -18.06844273	      9.49560290	     -3.75150499	     -3.24435245	      3.81336977	     23.02472743	     27.86679068	     20.89315287	     -8.92476464	      1.29550230	     -1.45588720	      1.87154508	     -0.39303780	     -1.39579959	      0.00000000	     -0.00155846	      0.00000000	      0.00000000	      0.00000000	      0.00000000	      0.00000000	      0.00000000	      0.00000000	     -1.47001395	    -16.04511155	      3.85262155	     13.36064176
      0.02090600	     -2.28735086	     -9.23769499	     -5.35632463	     -0.75855060	      1.03828569	      0.36683303	    -18.25518547	      9.41695909	     -3.67974451	     -3.41268676	      3.84933945	     23.11906229	     27.93383205	     20.95802508	     -8.91411344	      1.36302103	     -1.25902823	      2.00679653	     -0.39844804	     -1.49281631	      0.00000000	     -0.00208042	      0.00000000	      0.00000000	      0.00000000	      0.00000000	      0.00000000	      0.00000000	      0.00000000	     -1.85851640	    -16.02946558	      3.76190783	     13.40314679
      0.02508700	     -2.32221483	     -9.23795962	     -5.46295671	     -0.75301698	      1.03726504	      0.36684171	    -18.42177908	      9.31966028	     -3.61327624	     -3.62413515	      3.89636634	     23.24239924	     28.03543423	     21.01746971	     -8.90379967	      1.45047783	     -1.02270217	      2.12297316	     -0.41178262	     -1.60450643	      0.00000000	     -0.00265153	      0.00000000	      0.00000000	      0.00000000	      0.00000000	      0.00000000	      0.00000000	      0.00000000	     -2.28273713	    -16.01579312	      3.64592699	     13.46064765
      0.02926800	     -2.47348718	     -9.24854137	     -5.50835953	     -0.74744882	      1.03585490	      0.36670323	    -18.21426857	      9.19749224	     -4.22769676	     -4.29188783	      4.13744400	     24.48262221	     29.66481536	     21.42628494	     -8.86914446	      1.49781027	     -0.25593715	      1.98242661	     -0.41948938	     -1.61160343	      0.00000000	     -0.00343851	      0.00000000	      0.00000000	      0.00000000	      0.00000000	      0.00000000	      0.00000000	      0.00000000	     -2.61568121	    -15.89739226	      3.51797968	     13.66211563
